<svg xmlns="http://www.w3.org/2000/svg" xmlns:xlink="http://www.w3.org/1999/xlink" contentStyleType="text/css" data-diagram-type="CLASS" height="424px" preserveAspectRatio="none" style="width:1358px;height:424px;background:#1B1B1B;" version="1.1" viewBox="0 0 1358 424" width="1358px" zoomAndPan="magnify"><?plantuml 1.2026.3beta4?><defs/><g><rect fill="#1B1B1B" height="424" style="stroke:none;stroke-width:1;" width="1358" x="0" y="0"/><!--class Point--><g class="entity" data-qualified-name="Point" data-source-line="4" id="ent0002"><rect fill="#313139" height="113.1875" rx="2.5" ry="2.5" style="stroke:#E7E7E7;stroke-width:0.5;" width="210.7139" x="435.43" y="296.45"/><ellipse cx="518.9071" cy="312.45" fill="#2E5233" rx="11" ry="11" style="stroke:#E7E7E7;stroke-width:1;"/><path d="M521.8758,318.0906 Q521.2977,318.3875 520.6571,318.5281 Q520.0164,318.6844 519.3133,318.6844 Q516.8133,318.6844 515.4852,317.0438 Q514.1727,315.3875 514.1727,312.2625 Q514.1727,309.1375 515.4852,307.4813 Q516.8133,305.825 519.3133,305.825 Q520.0164,305.825 520.6571,305.9813 Q521.3133,306.1375 521.8758,306.4344 L521.8758,309.1531 Q521.2508,308.575 520.6571,308.3094 Q520.0633,308.0281 519.4383,308.0281 Q518.0946,308.0281 517.4071,309.1063 Q516.7196,310.1688 516.7196,312.2625 Q516.7196,314.3563 517.4071,315.4344 Q518.0946,316.4969 519.4383,316.4969 Q520.0633,316.4969 520.6571,316.2313 Q521.2508,315.95 521.8758,315.3719 L521.8758,318.0906 Z " fill="#FFFFFF"/><text fill="#FFFFFF" font-family="sans-serif" font-size="14" lengthAdjust="spacing" textLength="35.2598" x="539.4071" y="317.2967">Point</text><line style="stroke:#E7E7E7;stroke-width:0.5;" x1="436.43" x2="645.1439" y1="328.45" y2="328.45"/><text fill="#FFFFFF" font-family="sans-serif" font-size="14" lengthAdjust="spacing" textLength="76.8975" x="441.43" y="345.4451">+x: double</text><text fill="#FFFFFF" font-family="sans-serif" font-size="14" lengthAdjust="spacing" textLength="76.8975" x="441.43" y="361.742">+y: double</text><line style="stroke:#E7E7E7;stroke-width:0.5;" x1="436.43" x2="645.1439" y1="369.0438" y2="369.0438"/><text fill="#FFFFFF" font-family="sans-serif" font-size="14" lengthAdjust="spacing" textLength="198.7139" x="441.43" y="386.0389">+operator==(p: Point): bool</text><text fill="#FFFFFF" font-family="sans-serif" font-size="14" lengthAdjust="spacing" textLength="186.9834" x="441.43" y="402.3357">+operator&lt;(p: Point): bool</text></g><!--class Edge--><g class="entity" data-qualified-name="Edge" data-source-line="11" id="ent0003"><rect fill="#313139" height="96.8906" rx="2.5" ry="2.5" style="stroke:#E7E7E7;stroke-width:0.5;" width="210.4131" x="206.58" y="139.56"/><ellipse cx="289.9203" cy="155.56" fill="#2E5233" rx="11" ry="11" style="stroke:#E7E7E7;stroke-width:1;"/><path d="M292.8891,161.2006 Q292.311,161.4975 291.6703,161.6381 Q291.0297,161.7944 290.3266,161.7944 Q287.8266,161.7944 286.4985,160.1538 Q285.186,158.4975 285.186,155.3725 Q285.186,152.2475 286.4985,150.5913 Q287.8266,148.935 290.3266,148.935 Q291.0297,148.935 291.6703,149.0913 Q292.3266,149.2475 292.8891,149.5444 L292.8891,152.2631 Q292.2641,151.685 291.6703,151.4194 Q291.0766,151.1381 290.4516,151.1381 Q289.1078,151.1381 288.4203,152.2163 Q287.7328,153.2788 287.7328,155.3725 Q287.7328,157.4663 288.4203,158.5444 Q289.1078,159.6069 290.4516,159.6069 Q291.0766,159.6069 291.6703,159.3413 Q292.2641,159.06 292.8891,158.4819 L292.8891,161.2006 Z " fill="#FFFFFF"/><text fill="#FFFFFF" font-family="sans-serif" font-size="14" lengthAdjust="spacing" textLength="35.2324" x="310.4203" y="160.4067">Edge</text><line style="stroke:#E7E7E7;stroke-width:0.5;" x1="207.58" x2="415.9931" y1="171.56" y2="171.56"/><text fill="#FFFFFF" font-family="sans-serif" font-size="14" lengthAdjust="spacing" textLength="73.9512" x="212.58" y="188.5551">+p1: Point</text><text fill="#FFFFFF" font-family="sans-serif" font-size="14" lengthAdjust="spacing" textLength="73.9512" x="212.58" y="204.852">+p2: Point</text><line style="stroke:#E7E7E7;stroke-width:0.5;" x1="207.58" x2="415.9931" y1="212.1538" y2="212.1538"/><text fill="#FFFFFF" font-family="sans-serif" font-size="14" lengthAdjust="spacing" textLength="198.4131" x="212.58" y="229.1489">+operator==(e: Edge): bool</text></g><!--class Triangle--><g class="entity" data-qualified-name="Triangle" data-source-line="17" id="ent0004"><rect fill="#313139" height="96.8906" rx="2.5" ry="2.5" style="stroke:#E7E7E7;stroke-width:0.5;" width="89.0391" x="594.27" y="139.56"/><ellipse cx="609.27" cy="155.56" fill="#2E5233" rx="11" ry="11" style="stroke:#E7E7E7;stroke-width:1;"/><path d="M612.2388,161.2006 Q611.6606,161.4975 611.02,161.6381 Q610.3794,161.7944 609.6763,161.7944 Q607.1763,161.7944 605.8481,160.1538 Q604.5356,158.4975 604.5356,155.3725 Q604.5356,152.2475 605.8481,150.5913 Q607.1763,148.935 609.6763,148.935 Q610.3794,148.935 611.02,149.0913 Q611.6763,149.2475 612.2388,149.5444 L612.2388,152.2631 Q611.6138,151.685 611.02,151.4194 Q610.4263,151.1381 609.8013,151.1381 Q608.4575,151.1381 607.77,152.2163 Q607.0825,153.2788 607.0825,155.3725 Q607.0825,157.4663 607.77,158.5444 Q608.4575,159.6069 609.8013,159.6069 Q610.4263,159.6069 611.02,159.3413 Q611.6138,159.06 612.2388,158.4819 L612.2388,161.2006 Z " fill="#FFFFFF"/><text fill="#FFFFFF" font-family="sans-serif" font-size="14" lengthAdjust="spacing" textLength="57.0391" x="623.27" y="160.4067">Triangle</text><line style="stroke:#E7E7E7;stroke-width:0.5;" x1="595.27" x2="682.3091" y1="171.56" y2="171.56"/><text fill="#FFFFFF" font-family="sans-serif" font-size="14" lengthAdjust="spacing" textLength="64.7363" x="600.27" y="188.5551">+a: Point</text><text fill="#FFFFFF" font-family="sans-serif" font-size="14" lengthAdjust="spacing" textLength="65.0439" x="600.27" y="204.852">+b: Point</text><text fill="#FFFFFF" font-family="sans-serif" font-size="14" lengthAdjust="spacing" textLength="63.8545" x="600.27" y="221.1489">+c: Point</text><line style="stroke:#E7E7E7;stroke-width:0.5;" x1="595.27" x2="682.3091" y1="228.4506" y2="228.4506"/></g><!--class GeometryUtils--><g class="entity" data-qualified-name="GeometryUtils" data-source-line="23" id="ent0005"><rect fill="#313139" height="72.5625" rx="2.5" ry="2.5" style="stroke:#E7E7E7;stroke-width:0.5;" width="307.5723" x="7" y="7"/><ellipse cx="106.2271" cy="27.1328" fill="#2E5233" rx="11" ry="11" style="stroke:#E7E7E7;stroke-width:1;"/><path d="M109.1958,32.7734 Q108.6177,33.0703 107.9771,33.2109 Q107.3364,33.3672 106.6333,33.3672 Q104.1333,33.3672 102.8052,31.7266 Q101.4927,30.0703 101.4927,26.9453 Q101.4927,23.8203 102.8052,22.1641 Q104.1333,20.5078 106.6333,20.5078 Q107.3364,20.5078 107.9771,20.6641 Q108.6333,20.8203 109.1958,21.1172 L109.1958,23.8359 Q108.5708,23.2578 107.9771,22.9922 Q107.3833,22.7109 106.7583,22.7109 Q105.4146,22.7109 104.7271,23.7891 Q104.0396,24.8516 104.0396,26.9453 Q104.0396,29.0391 104.7271,30.1172 Q105.4146,31.1797 106.7583,31.1797 Q107.3833,31.1797 107.9771,30.9141 Q108.5708,30.6328 109.1958,30.0547 L109.1958,32.7734 Z " fill="#FFFFFF"/><text fill="#000000" font-family="sans-serif" font-size="12" font-style="italic" lengthAdjust="spacing" textLength="48.8027" x="152.6348" y="23.1387">&#171;utility&#187;</text><text fill="#FFFFFF" font-family="sans-serif" font-size="14" lengthAdjust="spacing" textLength="100.6182" x="126.7271" y="38.9639">GeometryUtils</text><line style="stroke:#E7E7E7;stroke-width:0.5;" x1="8" x2="313.5723" y1="47.2656" y2="47.2656"/><line style="stroke:#E7E7E7;stroke-width:0.5;" x1="8" x2="313.5723" y1="55.2656" y2="55.2656"/><text fill="#FFFFFF" font-family="sans-serif" font-size="14" lengthAdjust="spacing" textLength="295.5723" x="13" y="72.2607">+inCircumcircle(p: Point, t: Triangle): bool</text></g><!--class DelaunayService--><g class="entity" data-qualified-name="DelaunayService" data-source-line="27" id="ent0006"><rect fill="#313139" height="72.5625" rx="2.5" ry="2.5" style="stroke:#E7E7E7;stroke-width:0.5;" width="481.2939" x="349.14" y="7"/><ellipse cx="526.43" cy="27.1328" fill="#2E5233" rx="11" ry="11" style="stroke:#E7E7E7;stroke-width:1;"/><path d="M529.3988,32.7734 Q528.8207,33.0703 528.18,33.2109 Q527.5394,33.3672 526.8363,33.3672 Q524.3363,33.3672 523.0082,31.7266 Q521.6957,30.0703 521.6957,26.9453 Q521.6957,23.8203 523.0082,22.1641 Q524.3363,20.5078 526.8363,20.5078 Q527.5394,20.5078 528.18,20.6641 Q528.8363,20.8203 529.3988,21.1172 L529.3988,23.8359 Q528.7738,23.2578 528.18,22.9922 Q527.5863,22.7109 526.9613,22.7109 Q525.6175,22.7109 524.93,23.7891 Q524.2425,24.8516 524.2425,26.9453 Q524.2425,29.0391 524.93,30.1172 Q525.6175,31.1797 526.9613,31.1797 Q527.5863,31.1797 528.18,30.9141 Q528.7738,30.6328 529.3988,30.0547 L529.3988,32.7734 Z " fill="#FFFFFF"/><text fill="#000000" font-family="sans-serif" font-size="12" font-style="italic" lengthAdjust="spacing" textLength="48.8027" x="581.6356" y="23.1387">&#171;utility&#187;</text><text fill="#FFFFFF" font-family="sans-serif" font-size="14" lengthAdjust="spacing" textLength="118.2139" x="546.93" y="38.9639">DelaunayService</text><line style="stroke:#E7E7E7;stroke-width:0.5;" x1="350.14" x2="829.4339" y1="47.2656" y2="47.2656"/><line style="stroke:#E7E7E7;stroke-width:0.5;" x1="350.14" x2="829.4339" y1="55.2656" y2="55.2656"/><text fill="#FFFFFF" font-family="sans-serif" font-size="14" lengthAdjust="spacing" textLength="469.2939" x="355.14" y="72.2607">+delaunayTriangulation(points: vector&lt;Point&gt;): vector&lt;Triangle&gt;</text></g><!--class VTKExporter--><g class="entity" data-qualified-name="VTKExporter" data-source-line="31" id="ent0007"><rect fill="#313139" height="72.5625" rx="2.5" ry="2.5" style="stroke:#E7E7E7;stroke-width:0.5;" width="478.0947" x="865.74" y="7"/><ellipse cx="1056.7839" cy="27.1328" fill="#2E5233" rx="11" ry="11" style="stroke:#E7E7E7;stroke-width:1;"/><path d="M1059.7527,32.7734 Q1059.1746,33.0703 1058.5339,33.2109 Q1057.8933,33.3672 1057.1902,33.3672 Q1054.6902,33.3672 1053.3621,31.7266 Q1052.0496,30.0703 1052.0496,26.9453 Q1052.0496,23.8203 1053.3621,22.1641 Q1054.6902,20.5078 1057.1902,20.5078 Q1057.8933,20.5078 1058.5339,20.6641 Q1059.1902,20.8203 1059.7527,21.1172 L1059.7527,23.8359 Q1059.1277,23.2578 1058.5339,22.9922 Q1057.9402,22.7109 1057.3152,22.7109 Q1055.9714,22.7109 1055.2839,23.7891 Q1054.5964,24.8516 1054.5964,26.9453 Q1054.5964,29.0391 1055.2839,30.1172 Q1055.9714,31.1797 1057.3152,31.1797 Q1057.9402,31.1797 1058.5339,30.9141 Q1059.1277,30.6328 1059.7527,30.0547 L1059.7527,32.7734 Z " fill="#FFFFFF"/><text fill="#000000" font-family="sans-serif" font-size="12" font-style="italic" lengthAdjust="spacing" textLength="48.8027" x="1096.636" y="23.1387">&#171;utility&#187;</text><text fill="#FFFFFF" font-family="sans-serif" font-size="14" lengthAdjust="spacing" textLength="87.5068" x="1077.2839" y="38.9639">VTKExporter</text><line style="stroke:#E7E7E7;stroke-width:0.5;" x1="866.74" x2="1342.8347" y1="47.2656" y2="47.2656"/><line style="stroke:#E7E7E7;stroke-width:0.5;" x1="866.74" x2="1342.8347" y1="55.2656" y2="55.2656"/><text fill="#FFFFFF" font-family="sans-serif" font-size="14" lengthAdjust="spacing" textLength="466.0947" x="871.74" y="72.2607">+exportToVTK(triangles: vector&lt;Triangle&gt;, filename: string): void</text></g><!--link Edge to Point--><g class="link" data-entity-1="ent0003" data-entity-2="ent0002" data-link-type="association" data-source-line="35" id="lnk8"><path codeLine="35" d="M378.95,236.82 C405.08,255.43 435.2,276.87 462.32,296.18" fill="none" id="Edge-Point" style="stroke:#E7E7E7;stroke-width:1;"/><text fill="#FFFFFF" font-family="sans-serif" font-size="13" lengthAdjust="spacing" textLength="8.271" x="379.4558" y="256.4631">2</text></g><!--link Triangle to Point--><g class="link" data-entity-1="ent0004" data-entity-2="ent0002" data-link-type="association" data-source-line="36" id="lnk9"><path codeLine="36" d="M610.18,236.6 C598.99,255.21 586.08,276.69 574.45,296.04" fill="none" id="Triangle-Point" style="stroke:#E7E7E7;stroke-width:1;"/><text fill="#FFFFFF" font-family="sans-serif" font-size="13" lengthAdjust="spacing" textLength="8.271" x="597.6133" y="256.5645">3</text></g><!--link GeometryUtils to Point--><g class="link" data-entity-1="ent0005" data-entity-2="ent0002" data-link-type="dependency" data-source-line="38" id="lnk10"><path codeLine="38" d="M314.78,74.99 C357.27,89.19 400.94,109.79 434.79,139.56 C481.99,181.08 508.7283,242.8296 524.1283,290.5796" fill="none" id="GeometryUtils-to-Point" style="stroke:#E7E7E7;stroke-width:1;stroke-dasharray:7,7;"/><polygon fill="#E7E7E7" points="525.97,296.29,527.0144,286.4967,524.4353,291.5314,519.4006,288.9522,525.97,296.29" style="stroke:#E7E7E7;stroke-width:1;"/></g><!--link GeometryUtils to Triangle--><g class="link" data-entity-1="ent0005" data-entity-2="ent0004" data-link-type="dependency" data-source-line="39" id="lnk11"><path codeLine="39" d="M291.23,79.97 C353.36,97.33 428.61,118.87 495.79,139.56 C528.78,149.72 560.0881,160.0923 588.1781,169.6223" fill="none" id="GeometryUtils-to-Triangle" style="stroke:#E7E7E7;stroke-width:1;stroke-dasharray:7,7;"/><polygon fill="#E7E7E7" points="593.86,171.55,586.6223,164.8705,589.1251,169.9436,584.052,172.4464,593.86,171.55" style="stroke:#E7E7E7;stroke-width:1;"/></g><!--link DelaunayService to Point--><g class="link" data-entity-1="ent0006" data-entity-2="ent0002" data-link-type="dependency" data-source-line="41" id="lnk12"><path codeLine="41" d="M584.12,79.89 C575.68,132.89 560.6728,227.1245 550.6628,290.0345" fill="none" id="DelaunayService-to-Point" style="stroke:#E7E7E7;stroke-width:1;stroke-dasharray:7,7;"/><polygon fill="#E7E7E7" points="549.72,295.96,555.0846,287.7004,550.5057,291.0221,547.1839,286.4433,549.72,295.96" style="stroke:#E7E7E7;stroke-width:1;"/></g><!--link DelaunayService to Triangle--><g class="link" data-entity-1="ent0006" data-entity-2="ent0004" data-link-type="dependency" data-source-line="42" id="lnk13"><path codeLine="42" d="M602.02,79.93 C608.18,97.85 613.7735,114.1345 620.4135,133.4945" fill="none" id="DelaunayService-to-Triangle" style="stroke:#E7E7E7;stroke-width:1;stroke-dasharray:7,7;"/><polygon fill="#E7E7E7" points="622.36,139.17,623.2238,129.3591,620.7379,134.4404,615.6565,131.9545,622.36,139.17" style="stroke:#E7E7E7;stroke-width:1;"/></g><!--link VTKExporter to Triangle--><g class="link" data-entity-1="ent0007" data-entity-2="ent0004" data-link-type="dependency" data-source-line="44" id="lnk14"><path codeLine="44" d="M988.1,80.02 C889.43,110.24 759.057,150.1732 689.467,171.4832" fill="none" id="VTKExporter-to-Triangle" style="stroke:#E7E7E7;stroke-width:1;stroke-dasharray:7,7;"/><polygon fill="#E7E7E7" points="683.73,173.24,693.5068,174.4295,688.5109,171.776,691.1644,166.7801,683.73,173.24" style="stroke:#E7E7E7;stroke-width:1;"/></g><!--link VTKExporter to Point--><g class="link" data-entity-1="ent0007" data-entity-2="ent0002" data-link-type="dependency" data-source-line="45" id="lnk15"><path codeLine="45" d="M1039.26,80.04 C942.02,133.1 763.8969,230.296 648.7169,293.146" fill="none" id="VTKExporter-to-Point" style="stroke:#E7E7E7;stroke-width:1;stroke-dasharray:7,7;"/><polygon fill="#E7E7E7" points="643.45,296.02,653.2663,295.2203,647.8391,293.625,649.4344,288.1978,643.45,296.02" style="stroke:#E7E7E7;stroke-width:1;"/></g><?plantuml-src RL5TJuCm57tlhxZPqnQtHUSRsKYCBiRuOhBfUu4xlB6qf2rpQFplGbU-nbuWf-UB7imNoPnhda4ik34FrcgA2eiliP8x-a6uPQQLc4-Ug6-IAHouCCYOyy2R8cdXbm7Sm2c0H1MHG8VA0L8vQcwLtcocUN1spGA8b183UZrY_vgcRPAYByhllEYCLdtKAyB0cKP9UqrSfg99utrxr0Tn0rhhCweChIxVBGa3wtLHlScMOUYpI3wIZeiihfu2sylCmGPjxUXxdb3mGl9oX_f8CLw9JRpY7548Rad9QLv7cm2E6DVJkQPmrkAcB-oQFlQlsrEkj4LzfGKTjLULQcgzsOpZvd0WWP9drRwcqicqxbIKr3tkBqrM4rWi_7RjsfFxtYaRBhbSXfuOdpS1Z5qErRckCPslV-q1Sqcui7y0?></g></svg>
